<svg width="37" height="22" viewBox="0 0 37 22" fill="none" xmlns="http://www.w3.org/2000/svg">
<path d="M17 9.5V5H18.8705C20.1935 5 20.723 5.4455 21.6125 6.3635C22.2905 7.061 24.5 9.5 24.5 9.5H17ZM15.5 5H12.1355C11.1035 5 10.559 5.333 10.07 5.8715C9.596 6.3935 8.7275 7.2935 7.811 8.378C10.3895 9.344 13.8935 9.5 15.5 9.5V5ZM36.5 12.7415C36.5 8.507 33.455 7.6265 32.309 7.295C30.596 6.7985 29.828 6.5825 27.7625 6.104C26.9375 5.2865 24.6845 3.05 24.179 2.54L24.0455 2.4035C23.0465 1.385 21.914 0.5 19.2875 0.5H7.8275C7.007 0.5 6.641 1.184 7.4465 1.916C6.6455 2.609 4.5305 4.475 3.9365 5.078C1.8605 7.181 0.5 8.798 0.5 11.9825C0.5 15.674 2.5415 18.3695 5.2685 18.4805C5.8835 20.234 7.5365 21.5 9.5 21.5C11.456 21.5 13.1045 20.243 13.724 18.5H23.2745C23.894 20.243 25.5425 21.5 27.4985 21.5C29.4605 21.5 31.112 20.2355 31.7285 18.485C34.6295 18.401 36.5 16.2275 36.5 12.7415ZM9.5 18.8C8.507 18.8 7.7 17.993 7.7 17C7.7 16.007 8.507 15.2 9.5 15.2C10.493 15.2 11.3 16.007 11.3 17C11.3 17.993 10.493 18.8 9.5 18.8ZM27.5 18.8C26.507 18.8 25.7 17.993 25.7 17C25.7 16.007 26.507 15.2 27.5 15.2C28.493 15.2 29.3 16.007 29.3 17C29.3 17.993 28.493 18.8 27.5 18.8ZM31.748 15.575C31.1495 13.793 29.4845 12.5 27.5 12.5C25.5095 12.5 23.84 13.802 23.246 15.593H13.754C13.16 13.802 11.4905 12.5 9.5 12.5C7.5215 12.5 5.861 13.7855 5.2565 15.56C4.3775 15.389 3.5 14.0045 3.5 11.9825C3.5 9.98 4.205 9.0755 6.071 7.184C7.1585 6.0815 8.036 5.3705 9.4655 4.145C9.9755 3.7085 10.6265 3.497 11.2985 3.5H19.058C20.888 3.5 21.4235 4.0775 22.232 4.838C22.8605 5.4275 26.255 8.8355 26.255 8.8355C26.255 8.8355 29.7095 9.6665 31.475 10.178C32.735 10.5425 33.5 10.8965 33.5 12.743C33.5 14.537 32.906 15.482 31.748 15.575Z" fill="#ECE535" fill-opacity="0.25"/>
</svg>
