<svg width="35" height="36" viewBox="0 0 35 36" fill="none" xmlns="http://www.w3.org/2000/svg">
<path fill-rule="evenodd" clip-rule="evenodd" d="M7.5 10.5V0H27V15H34.5V36H0V10.5H7.5ZM7.5 34.5V28.5H6V34.5H7.5ZM19.5 28.5H15V34.5H19.5V28.5ZM28.5 28.5H27V34.5H28.5V28.5ZM31.5 18H27V27H30V33H31.5V18ZM24 3H10.5V33H12V25.5H22.5V33H24V3ZM4.5 33V27H7.5V13.5H3V33H4.5ZM30 24H28.5V21H30V24ZM4.5 21H6V24H4.5V21ZM16.5 22.5H13.5V19.5H16.5V22.5ZM21 22.5H18V19.5H21V22.5ZM6 16.5V19.5H4.5V16.5H6ZM16.5 18H13.5V15H16.5V18ZM21 18H18V15H21V18ZM16.5 13.5H13.5V10.5H16.5V13.5ZM21 13.5H18V10.5H21V13.5ZM16.5 9H13.5V6H16.5V9ZM21 9H18V6H21V9Z" fill="#ECE535" fill-opacity="0.25"/>
</svg>
