<svg width="30" height="36" viewBox="0 0 30 36" fill="none" xmlns="http://www.w3.org/2000/svg">
<path d="M19.3665 15C18.9045 19.9875 17.2695 23.568 14.943 27H7.5555C5.496 23.9865 3.6375 20.442 3.1335 15H19.3665ZM22.5 12H0C0 20.574 2.739 25.494 6 30H16.5C19.68 25.6335 22.5 20.5005 22.5 12ZM24.1785 15C24.093 16.0515 23.967 17.0505 23.8005 18H26.1255C25.452 19.935 23.8755 21.717 22.677 22.371C22.14 23.928 21.4965 25.3425 20.787 26.649C25.698 24.9345 29.556 19.8855 30 15H24.1785ZM12.561 10.4985C19.6665 4.0935 11.091 4.4325 12.7365 0C7.062 5.7255 14.85 5.853 12.561 10.4985ZM8.391 10.5C13.122 6.2625 7.395 5.847 8.5215 2.8515C4.5585 7.032 9.9465 7.14 8.391 10.5ZM22.5 33H0V36H22.5V33Z" fill="#ECE535" fill-opacity="0.25"/>
</svg>
