<svg width="24" height="36" viewBox="0 0 24 36" fill="none" xmlns="http://www.w3.org/2000/svg">
<path d="M22.5 36H1.5V33H22.5V36ZM9.5625 6.4305C11.619 9.9375 11.6715 16.4055 10.0785 19.101C13.9215 18.633 17.751 14.844 18.5895 12.3015C20.154 14.46 21 17.0175 21 19.7505C21 22.0815 19.707 25.692 16.1715 27.4935C15.843 25.407 14.484 23.1345 12.2145 21.8445C10.0545 23.1105 8.469 25.8765 8.0385 27.7515C6.1875 26.9295 3 24.4215 3 21C3 16.0785 7.0635 14.1225 9.5625 6.4305ZM7.5 0C8.313 9.438 0 12.687 0 21C0 26.646 5.235 30.63 10.5 31.5075C10.242 29.3205 10.9455 27.2115 12.249 25.9695C13.524 27.1185 14.109 29.673 13.5 31.5015C19.302 30.3765 24 25.7145 24 19.752C24 14.313 21.2505 9.1875 16.0635 6C16.9695 9.468 15.798 11.859 14.157 13.344C14.2515 8.961 12.4215 3.093 7.5 0Z" fill="#ECE535" fill-opacity="0.25"/>
</svg>
