<svg width="202" height="33" viewBox="0 0 202 33" fill="none" xmlns="http://www.w3.org/2000/svg">
<path d="M192.824 31.5625C191.549 31.5625 190.341 31.39 189.201 31.045C188.061 30.7 187.131 30.1375 186.411 29.3575C185.691 28.5625 185.309 27.49 185.264 26.14C185.249 25.795 185.234 25.42 185.219 25.015C185.219 24.595 185.211 24.1675 185.196 23.7325C185.196 23.2825 185.196 22.84 185.196 22.405C185.196 21.955 185.196 21.5125 185.196 21.0775C185.196 20.6275 185.196 20.2 185.196 19.795C185.196 19.135 185.024 18.7075 184.679 18.5125C184.334 18.3025 183.884 18.175 183.329 18.13C183.029 18.1 182.699 18.07 182.339 18.04C181.994 18.01 181.634 17.98 181.259 17.95C180.899 17.905 180.524 17.8675 180.134 17.8375C179.354 17.7325 178.731 17.4025 178.266 16.8475C177.816 16.2775 177.591 15.49 177.591 14.485C177.591 13.78 177.726 13.24 177.996 12.865C178.266 12.475 178.626 12.19 179.076 12.01C179.541 11.83 180.036 11.68 180.561 11.56C181.221 11.455 181.806 11.3575 182.316 11.2675C182.841 11.1625 183.306 11.065 183.711 10.975C184.131 10.885 184.469 10.7425 184.724 10.5475C184.994 10.3525 185.159 10.0075 185.219 9.5125C185.279 9.1675 185.331 8.8225 185.376 8.4775C185.421 8.1325 185.466 7.795 185.511 7.465C185.571 7.135 185.639 6.8425 185.714 6.5875C186.014 5.7175 186.419 5.095 186.929 4.72C187.439 4.345 188.234 4.1575 189.314 4.1575C190.169 4.1575 190.844 4.2625 191.339 4.4725C191.849 4.6675 192.239 4.9825 192.509 5.4175C192.794 5.8375 193.026 6.4 193.206 7.105C193.266 7.465 193.319 7.78 193.364 8.05C193.409 8.32 193.446 8.575 193.476 8.815C193.521 9.055 193.559 9.295 193.589 9.535C193.619 9.76 193.656 10.015 193.701 10.3C193.761 10.75 193.949 11.095 194.264 11.335C194.579 11.56 194.961 11.71 195.411 11.785C195.801 11.845 196.176 11.905 196.536 11.965C196.896 12.01 197.249 12.055 197.594 12.1C197.954 12.145 198.299 12.19 198.629 12.235C199.394 12.34 200.084 12.61 200.699 13.045C201.329 13.465 201.644 14.1775 201.644 15.1825C201.644 16.0525 201.389 16.765 200.879 17.32C200.369 17.86 199.724 18.175 198.944 18.265C198.269 18.31 197.616 18.3475 196.986 18.3775C196.356 18.4075 195.846 18.445 195.456 18.49C195.126 18.52 194.826 18.6325 194.556 18.8275C194.286 19.0075 194.121 19.3825 194.061 19.9525C194.061 20.2675 194.054 20.59 194.039 20.92C194.024 21.25 194.016 21.58 194.016 21.91C194.031 22.24 194.039 22.5625 194.039 22.8775C194.039 23.1925 194.046 23.5 194.061 23.8C194.076 24.1 194.099 24.3775 194.129 24.6325C194.174 25.1875 194.324 25.5925 194.579 25.8475C194.834 26.1025 195.284 26.23 195.929 26.23C196.394 26.23 196.784 26.14 197.099 25.96C197.429 25.765 197.736 25.585 198.021 25.42C198.321 25.24 198.651 25.15 199.011 25.15C199.611 25.15 200.039 25.3075 200.294 25.6225C200.564 25.9375 200.699 26.4025 200.699 27.0175C200.699 27.7225 200.459 28.36 199.979 28.93C199.499 29.485 198.869 29.9575 198.089 30.3475C197.324 30.7375 196.476 31.0375 195.546 31.2475C194.631 31.4575 193.724 31.5625 192.824 31.5625Z" fill="#ECE535"/>
<path d="M151.684 31.495C150.559 31.495 149.629 31.285 148.894 30.865C148.159 30.43 147.612 29.7325 147.252 28.7725C147.147 28.4425 147.064 28.0675 147.004 27.6475C146.959 27.2275 146.922 26.77 146.892 26.275C146.877 25.765 146.884 25.2175 146.914 24.6325C146.974 21.5425 147.612 18.91 148.827 16.735C150.057 14.56 151.744 12.9025 153.889 11.7625C156.034 10.6075 158.517 10.03 161.337 10.03C164.187 10.03 166.699 10.5925 168.874 11.7175C171.064 12.8275 172.774 14.47 174.004 16.645C175.249 18.805 175.872 21.4525 175.872 24.5875C175.872 25.0975 175.849 25.5775 175.804 26.0275C175.759 26.4775 175.692 26.905 175.602 27.31C175.527 27.7 175.422 28.0675 175.287 28.4125C174.882 29.4175 174.297 30.1825 173.532 30.7075C172.782 31.2325 171.874 31.495 170.809 31.495C169.579 31.495 168.619 31.33 167.929 31C167.254 30.655 166.767 30.1675 166.467 29.5375C166.167 28.8925 165.957 28.1275 165.837 27.2425C165.762 26.3875 165.687 25.63 165.612 24.97C165.537 24.295 165.454 23.6875 165.364 23.1475C165.274 22.6075 165.177 22.12 165.072 21.685C164.982 21.25 164.877 20.83 164.757 20.425C164.487 19.495 164.104 18.8125 163.609 18.3775C163.114 17.9275 162.439 17.7025 161.584 17.7025C160.789 17.7025 160.129 17.935 159.604 18.4C159.079 18.865 158.637 19.555 158.277 20.47C158.112 20.875 157.962 21.325 157.827 21.82C157.707 22.315 157.594 22.8625 157.489 23.4625C157.384 24.0475 157.287 24.685 157.197 25.375C157.107 26.065 157.009 26.8075 156.904 27.6025C156.784 28.6375 156.469 29.44 155.959 30.01C155.464 30.565 154.849 30.9475 154.114 31.1575C153.379 31.3825 152.569 31.495 151.684 31.495Z" fill="#ECE535"/>
<path d="M132.878 32.8675C130.268 32.8675 127.973 32.4625 125.993 31.6525C124.013 30.8575 122.475 29.635 121.38 27.985C120.285 26.32 119.738 24.22 119.738 21.685C119.738 19.6 120.098 17.77 120.818 16.195C121.538 14.605 122.528 13.2775 123.788 12.2125C125.048 11.1325 126.51 10.3225 128.175 9.78251C129.84 9.22751 131.61 8.95001 133.485 8.95001C134.775 8.95001 136.028 9.06251 137.243 9.28751C138.473 9.51251 139.583 9.88001 140.573 10.39C141.578 10.885 142.373 11.5525 142.958 12.3925C143.558 13.2325 143.858 14.2525 143.858 15.4525C143.858 16.4425 143.685 17.275 143.34 17.95C142.995 18.625 142.515 19.1875 141.9 19.6375C141.3 20.0725 140.603 20.4325 139.808 20.7175C139.028 21.0025 138.195 21.2425 137.31 21.4375C136.68 21.6475 135.893 21.8425 134.948 22.0225C134.003 22.1875 133.058 22.3225 132.113 22.4275C131.183 22.5175 130.395 22.5625 129.75 22.5625C129.3 22.5625 128.978 22.6225 128.783 22.7425C128.603 22.8475 128.513 23.035 128.513 23.305C128.513 23.545 128.573 23.8075 128.693 24.0925C128.828 24.3625 129.015 24.61 129.255 24.835C129.63 25.255 130.088 25.54 130.628 25.69C131.168 25.825 131.82 25.8925 132.585 25.8925C133.53 25.8925 134.49 25.75 135.465 25.465C136.455 25.165 137.453 24.8725 138.458 24.5875C139.463 24.3025 140.468 24.16 141.473 24.16C142.523 24.16 143.355 24.355 143.97 24.745C144.6 25.12 144.915 25.8775 144.915 27.0175C144.915 27.9775 144.585 28.825 143.925 29.56C143.28 30.295 142.388 30.91 141.248 31.405C140.123 31.9 138.84 32.2675 137.4 32.5075C135.96 32.7475 134.453 32.8675 132.878 32.8675ZM131.618 18.805C132.308 18.805 132.998 18.7225 133.688 18.5575C134.378 18.3775 134.955 18.0925 135.42 17.7025C135.9 17.2975 136.14 16.78 136.14 16.15C136.14 15.385 135.848 14.8525 135.263 14.5525C134.678 14.2375 133.943 14.08 133.058 14.08C132.518 14.08 131.978 14.1775 131.438 14.3725C130.913 14.5525 130.433 14.8075 129.998 15.1375C129.578 15.4675 129.24 15.85 128.985 16.285C128.73 16.705 128.603 17.155 128.603 17.635C128.603 17.98 128.708 18.2425 128.918 18.4225C129.143 18.5875 129.48 18.6925 129.93 18.7375C130.38 18.7825 130.943 18.805 131.618 18.805Z" fill="#ECE535"/>
<path d="M109.997 31.722C108.907 31.722 108.059 31.5256 107.451 31.133C106.855 30.753 106.444 30.1893 106.216 29.442C105.988 28.6946 105.874 27.7763 105.874 26.687C105.874 26.2943 105.88 25.8636 105.893 25.395C105.918 24.9263 105.943 24.4513 105.969 23.97C106.007 23.476 106.051 22.9883 106.102 22.507C106.165 22.013 106.228 21.538 106.292 21.082C106.355 20.626 106.425 20.208 106.501 19.828C106.589 19.4353 106.678 19.0933 106.767 18.802C107.21 17.7 107.862 16.8576 108.724 16.275C109.598 15.6923 110.719 15.401 112.087 15.401C113.353 15.401 114.284 15.857 114.88 16.769C115.475 17.6683 115.773 18.897 115.773 20.455C115.773 20.911 115.76 21.4176 115.735 21.975C115.709 22.5196 115.665 23.0833 115.602 23.666C115.551 24.236 115.481 24.8123 115.393 25.395C115.317 25.965 115.222 26.5096 115.108 27.029C114.994 27.5356 114.867 28.0043 114.728 28.435C114.601 28.8656 114.455 29.2203 114.291 29.499C113.835 30.2463 113.252 30.8036 112.543 31.171C111.846 31.5383 110.997 31.722 109.997 31.722ZM111.612 13.425C110.028 13.425 108.895 13.1653 108.211 12.646C107.539 12.1266 107.204 11.5313 107.204 10.86C107.204 9.98598 107.514 9.24498 108.135 8.63698C108.768 8.01631 109.553 7.54765 110.491 7.23098C111.441 6.91431 112.391 6.75598 113.341 6.75598C114.05 6.75598 114.702 6.86365 115.298 7.07898C115.893 7.29431 116.368 7.63631 116.723 8.10498C117.09 8.57365 117.274 9.18798 117.274 9.94798C117.274 10.7966 117.014 11.4743 116.495 11.981C115.975 12.4876 115.285 12.855 114.424 13.083C113.562 13.311 112.625 13.425 111.612 13.425Z" fill="#ECE535"/>
<path d="M87.8826 31.9675C85.0626 31.9675 82.6776 31.5775 80.7276 30.7975C78.7776 30.0175 77.3001 28.795 76.2951 27.13C75.2901 25.45 74.7876 23.2675 74.7876 20.5825C74.7876 19.3525 74.8401 18.1375 74.9451 16.9375C75.0651 15.7375 75.2226 14.575 75.4176 13.45C75.6276 12.325 75.8751 11.26 76.1601 10.255C76.4601 9.235 76.7826 8.305 77.1276 7.465C77.4876 6.61 77.8701 5.86 78.2751 5.215C78.9351 4.27 79.7076 3.5425 80.5926 3.0325C81.4776 2.5075 82.4526 2.245 83.5176 2.245C84.7626 2.245 85.7226 2.56 86.3976 3.19C87.0726 3.82 87.4101 4.675 87.4101 5.755C87.4101 6.085 87.3951 6.43 87.3651 6.79C87.3501 7.15 87.3276 7.5175 87.2976 7.8925C87.2676 8.2675 87.2301 8.6425 87.1851 9.0175C87.1551 9.3775 87.1251 9.73 87.0951 10.075C87.0801 10.405 87.0726 10.72 87.0726 11.02C87.0726 11.905 87.0951 12.5425 87.1401 12.9325C87.1851 13.3075 87.3426 13.495 87.6126 13.495C87.8826 13.495 88.2351 13.42 88.6701 13.27C89.1051 13.12 89.5851 12.94 90.1101 12.73C90.5151 12.535 91.0026 12.3775 91.5726 12.2575C92.1576 12.1225 92.7876 12.055 93.4626 12.055C95.3976 12.055 97.0476 12.4525 98.4126 13.2475C99.7926 14.0275 100.843 15.1225 101.563 16.5325C102.298 17.9425 102.665 19.5925 102.665 21.4825C102.665 23.3725 102.275 24.985 101.495 26.32C100.715 27.64 99.6426 28.72 98.2776 29.56C96.9126 30.385 95.3376 30.9925 93.5526 31.3825C91.7826 31.7725 89.8926 31.9675 87.8826 31.9675ZM88.8951 26.2975C89.3751 26.2975 89.8626 26.2075 90.3576 26.0275C90.8526 25.8475 91.3101 25.585 91.7301 25.24C92.1501 24.895 92.4876 24.475 92.7426 23.98C93.0126 23.47 93.1476 22.8925 93.1476 22.2475C93.1476 21.3625 92.9601 20.5975 92.5851 19.9525C92.2101 19.3075 91.7001 18.8125 91.0551 18.4675C90.4101 18.1075 89.6676 17.9275 88.8276 17.9275C88.0776 17.9275 87.4101 18.0925 86.8251 18.4225C86.2551 18.7375 85.8051 19.1875 85.4751 19.7725C85.1601 20.3575 85.0026 21.04 85.0026 21.82C85.0026 22.735 85.1226 23.53 85.3626 24.205C85.6176 24.88 86.0301 25.3975 86.6001 25.7575C87.1701 26.1175 87.9351 26.2975 88.8951 26.2975Z" fill="#ECE535"/>
<path d="M39.4787 31.6525C38.4737 31.6525 37.6712 31.405 37.0712 30.91C36.4862 30.4 36.0662 29.71 35.8112 28.84C35.5562 27.97 35.4287 26.9725 35.4287 25.8475C35.4287 25.2925 35.4437 24.7 35.4737 24.07C35.5187 23.425 35.5787 22.7725 35.6537 22.1125C35.7437 21.4525 35.8562 20.7925 35.9912 20.1325C36.1262 19.4725 36.2912 18.835 36.4862 18.22C36.6962 17.59 36.9287 16.9975 37.1837 16.4425C38.1587 14.4775 39.3362 13.015 40.7162 12.055C42.1112 11.095 43.7537 10.615 45.6437 10.615C46.8737 10.615 47.8862 10.8625 48.6812 11.3575C49.4762 11.8375 50.1212 12.46 50.6162 13.225C51.1262 13.99 51.5312 14.7925 51.8312 15.6325C52.0712 16.3075 52.3562 16.9 52.6862 17.41C53.0162 17.92 53.4062 18.175 53.8562 18.175C54.3662 18.175 54.8162 17.9875 55.2062 17.6125C55.6112 17.2375 56.0387 16.645 56.4887 15.835C56.9837 14.92 57.5462 14.095 58.1762 13.36C58.8212 12.61 59.6012 12.0175 60.5162 11.5825C61.4462 11.1475 62.5712 10.93 63.8912 10.93C65.8112 10.93 67.3487 11.4025 68.5037 12.3475C69.6587 13.2775 70.4912 14.575 71.0012 16.24C71.5112 17.905 71.7662 19.81 71.7662 21.955C71.7662 22.585 71.7512 23.215 71.7212 23.845C71.6912 24.46 71.6462 25.0675 71.5862 25.6675C71.5262 26.2525 71.4437 26.815 71.3387 27.355C71.2337 27.895 71.1062 28.3975 70.9562 28.8625C70.6112 29.8075 70.1237 30.52 69.4937 31C68.8787 31.465 68.0462 31.6975 66.9962 31.6975C66.0212 31.6975 65.2187 31.48 64.5887 31.045C63.9737 30.61 63.5012 30.0325 63.1712 29.3125C63.1112 29.0725 63.0587 28.8175 63.0137 28.5475C62.9687 28.2625 62.9312 27.955 62.9012 27.625C62.8712 27.295 62.8412 26.95 62.8112 26.59C62.7812 26.215 62.7587 25.825 62.7437 25.42C62.7287 25.015 62.7062 24.5875 62.6762 24.1375C62.6312 23.3875 62.5337 22.7425 62.3837 22.2025C62.2487 21.6625 62.0687 21.25 61.8437 20.965C61.6337 20.665 61.3637 20.515 61.0337 20.515C60.6737 20.515 60.3287 20.7025 59.9987 21.0775C59.6837 21.4525 59.3837 21.9325 59.0987 22.5175C58.8137 23.1025 58.5287 23.71 58.2437 24.34C57.6887 25.72 57.0662 26.7175 56.3762 27.3325C55.6862 27.9325 54.7037 28.2325 53.4287 28.2325C52.1387 28.2325 51.1712 27.8875 50.5262 27.1975C49.8812 26.5075 49.4087 25.645 49.1087 24.61C48.8837 23.785 48.6662 23.0875 48.4562 22.5175C48.2612 21.9475 48.0437 21.52 47.8037 21.235C47.5637 20.935 47.2712 20.785 46.9262 20.785C46.5962 20.785 46.2737 20.935 45.9587 21.235C45.6587 21.52 45.3737 21.955 45.1037 22.54C44.8637 23.125 44.6537 23.74 44.4737 24.385C44.3087 25.015 44.1662 25.645 44.0462 26.275C43.9412 26.89 43.8512 27.4825 43.7762 28.0525C43.5062 29.3875 43.0637 30.325 42.4487 30.865C41.8337 31.39 40.8437 31.6525 39.4787 31.6525Z" fill="#ECE535"/>
<path d="M28.1925 31.9C27.2475 31.9 26.4075 31.75 25.6725 31.45C24.9375 31.15 24.2925 30.625 23.7375 29.875C23.5875 29.605 23.445 29.32 23.31 29.02C23.19 28.72 23.0625 28.4125 22.9275 28.0975C22.8075 27.7675 22.665 27.4375 22.5 27.1075C22.335 26.7625 22.1325 26.4175 21.8925 26.0725C21.6075 25.6375 21.3 25.3 20.97 25.06C20.64 24.82 20.235 24.6475 19.755 24.5425C19.56 24.4825 19.2825 24.4375 18.9225 24.4075C18.5775 24.3625 18.195 24.3325 17.775 24.3175C17.37 24.2875 16.9725 24.2725 16.5825 24.2725C15.9825 24.2725 15.375 24.295 14.76 24.34C14.16 24.37 13.6275 24.4225 13.1625 24.4975C12.7125 24.5725 12.345 24.7 12.06 24.88C11.79 25.06 11.55 25.3075 11.34 25.6225C11.13 25.9375 10.9275 26.2975 10.7325 26.7025C10.5525 27.1075 10.3575 27.5275 10.1475 27.9625C9.9525 28.3975 9.7425 28.825 9.5175 29.245C9.0825 29.905 8.52 30.4525 7.83 30.8875C7.155 31.3075 6.1725 31.5175 4.8825 31.5175C3.8025 31.5175 2.895 31.36 2.16 31.045C1.44 30.73 0.9 30.205 0.54 29.47C0.18 28.72 0 27.73 0 26.5C0 25.66 0.0974995 24.76 0.2925 23.8C0.5025 22.825 0.7725 21.8275 1.1025 20.8075C1.4475 19.7725 1.83 18.76 2.25 17.77C2.685 16.765 3.12 15.82 3.555 14.935C3.99 14.035 4.4025 13.2325 4.7925 12.5275C5.1975 11.8075 5.55 11.2225 5.85 10.7725C6.345 10.0075 6.9375 9.22748 7.6275 8.43248C8.3175 7.62248 9.105 6.88748 9.99 6.22748C10.89 5.55248 11.895 5.01248 13.005 4.60748C14.115 4.18748 15.3375 3.97748 16.6725 3.97748C18.6825 3.97748 20.565 4.45748 22.32 5.41748C24.075 6.36248 25.665 7.68998 27.09 9.39998C27.675 10.045 28.2375 10.8325 28.7775 11.7625C29.3175 12.6775 29.82 13.6825 30.285 14.7775C30.765 15.8575 31.2 16.975 31.59 18.13C31.98 19.285 32.3175 20.4325 32.6025 21.5725C32.9025 22.7125 33.1275 23.7925 33.2775 24.8125C33.4275 25.8325 33.5025 26.755 33.5025 27.58C33.5025 29.17 33.015 30.2875 32.04 30.9325C31.08 31.5775 29.7975 31.9 28.1925 31.9ZM20.2275 18.355C20.5275 18.22 20.7225 18.04 20.8125 17.815C20.9175 17.59 20.97 17.2525 20.97 16.8025C20.97 16.4725 20.9175 16.0825 20.8125 15.6325C20.7225 15.1675 20.5875 14.695 20.4075 14.215C20.2425 13.72 20.0475 13.2775 19.8225 12.8875C19.4925 12.2875 19.11 11.8 18.675 11.425C18.24 11.05 17.775 10.8625 17.28 10.8625C16.635 10.8625 16.0275 11.1325 15.4575 11.6725C14.9025 12.1975 14.4375 12.805 14.0625 13.495C13.9275 13.735 13.785 14.02 13.635 14.35C13.485 14.68 13.35 15.025 13.23 15.385C13.11 15.73 13.005 16.0675 12.915 16.3975C12.84 16.7125 12.8025 16.99 12.8025 17.23C12.8025 17.74 13.02 18.1075 13.455 18.3325C13.89 18.5425 14.4375 18.6475 15.0975 18.6475C15.9375 18.6475 16.68 18.64 17.325 18.625C17.97 18.595 18.5325 18.5575 19.0125 18.5125C19.5075 18.4675 19.9125 18.415 20.2275 18.355Z" fill="#ECE535"/>
<path d="M110.009 2.46598C109.794 1.17511 110.79 0 112.098 0V0C113.407 0 114.403 1.17511 114.187 2.46598L114.039 3.35601C113.881 4.30468 113.06 5 112.098 5V5C111.137 5 110.316 4.30468 110.158 3.35601L110.009 2.46598Z" fill="#ECE535"/>
<path d="M121.229 6.54556C122.151 6.04536 123.303 6.45878 123.696 7.43092V7.43092C124.089 8.40307 123.548 9.50091 122.538 9.782L120.091 10.4629C119.371 10.6632 118.616 10.2912 118.336 9.59862V9.59862C118.056 8.90604 118.34 8.11356 118.997 7.7572L121.229 6.54556Z" fill="#ECE535"/>
<path d="M117.412 2.59452C118.115 1.74218 119.404 1.69587 120.166 2.49566V2.49566C120.928 3.29544 120.818 4.58119 119.933 5.24098L118.096 6.60886C117.463 7.08106 116.576 7.00571 116.031 6.43331V6.43331C115.486 5.8609 115.454 4.97165 115.956 4.36163L117.412 2.59452Z" fill="#ECE535"/>
<path d="M107.103 2.43709C106.468 1.67395 105.309 1.63529 104.624 2.35439V2.35439C103.939 3.07349 104.035 4.22884 104.828 4.8261L106.65 6.19804C107.216 6.62421 108.012 6.55863 108.5 6.04552V6.04552C108.989 5.53241 109.016 4.7346 108.562 4.19006L107.103 2.43709Z" fill="#ECE535"/>
<path d="M102.074 6.01986C101.107 5.47382 99.8807 5.88173 99.4335 6.89786V6.89786C98.9864 7.914 99.5143 9.09407 100.57 9.4379L103.889 10.5189C104.635 10.7619 105.444 10.4 105.76 9.68173V9.68173C106.076 8.96347 105.796 8.12256 105.113 7.73658L102.074 6.01986Z" fill="#ECE535"/>
</svg>
