<svg width="36" height="36" viewBox="0 0 36 36" fill="none" xmlns="http://www.w3.org/2000/svg">
<path d="M30.633 11.274C30.366 6.4245 26.0865 2.607 20.985 3.036C19.3545 1.1775 16.9455 0 14.25 0C9.492 0 5.619 3.6645 5.367 8.274C2.3175 8.8125 0 11.4315 0 14.583C0 18.126 2.9235 21 6.531 21H8.52C9.6765 22.797 11.706 24 14.031 24H29.4675C33.0765 24 36 21.126 36 17.583C36 14.4315 33.6825 11.8125 30.633 11.274ZM7.5405 18H6.531C4.5855 18 3 16.467 3 14.583C3 11.406 6.156 10.6875 8.232 10.815C8.157 8.781 8.4375 3 14.25 3C15.7005 3 16.821 3.375 17.685 3.966C14.9505 5.349 13.041 8.085 12.867 11.274C9.834 11.811 7.3215 14.4645 7.5405 18ZM29.4675 21H14.031C12.0855 21 10.5 19.467 10.5 17.583C10.5 14.406 13.656 13.6875 15.732 13.815C15.657 11.781 15.9375 6 21.75 6C27.4065 6 28.0935 11.6565 27.768 13.8135C30.0315 13.656 33 14.469 33 17.583C33 19.467 31.4145 21 29.4675 21ZM10.3035 31.0695L8.1885 28.9545L11.643 25.5L13.758 27.615L10.3035 31.0695ZM5.3535 36L3.2385 33.9045L6.693 30.45L8.808 32.565L5.3535 36ZM17.733 31.0695L15.618 28.9545L19.0725 25.5L21.1875 27.615L17.733 31.0695ZM12.783 36L10.668 33.9045L14.1225 30.45L16.2375 32.565L12.783 36ZM25.0455 31.0695L22.9305 28.9545L26.385 25.5L28.5 27.615L25.0455 31.0695ZM20.094 36L17.979 33.9045L21.4335 30.45L23.5485 32.565L20.094 36Z" fill="#ECE535"/>
</svg>
