<svg width="37" height="36" viewBox="0 0 37 36" fill="none" xmlns="http://www.w3.org/2000/svg">
<path d="M21.203 19.5H25.766L23 25.5H27.5L18.5 36L21.5 28.5H17L21.203 19.5ZM31.133 11.274C30.866 6.426 26.5865 2.6085 21.485 3.0375C19.8545 1.1775 17.4455 0 14.75 0C9.992 0 6.119 3.6645 5.867 8.274C2.8175 8.8125 0.5 11.4315 0.5 14.583C0.5 18.126 3.4235 21 7.031 21H9.02C10.1765 22.797 12.206 24 14.531 24H16.6025L18.005 21H14.531C12.5855 21 11 19.4685 11 17.583C11 14.406 14.156 13.6875 16.232 13.8135C16.157 11.781 16.4375 6 22.25 6C27.9065 6 28.5935 11.6565 28.268 13.8135C30.5315 13.656 33.5 14.469 33.5 17.583C33.5 19.4685 31.9145 21 29.9675 21H27.5705L26.1875 24H29.9675C33.5765 24 36.5 21.126 36.5 17.583C36.5 14.4315 34.1825 11.8125 31.133 11.274ZM13.367 11.274C10.334 11.8095 7.8215 14.4645 8.0405 18H7.031C5.0855 18 3.5 16.4685 3.5 14.583C3.5 11.406 6.656 10.6875 8.732 10.8135C8.657 8.781 8.9375 3 14.75 3C16.2005 3 17.321 3.375 18.185 3.9675C15.4505 5.349 13.541 8.085 13.367 11.274Z" fill="#ECE535" fill-opacity="0.25"/>
</svg>
