<svg width="18" height="15" viewBox="0 0 18 15" fill="none" xmlns="http://www.w3.org/2000/svg">
<path d="M4.5 3.75L10.5 0V15L4.5 11.25V3.75ZM0 11.25H3V3.75H0V11.25ZM15.198 1.302L14.0753 2.42475C15.4605 3.762 16.3125 5.5425 16.3125 7.5C16.3125 9.4575 15.4613 11.238 14.0753 12.5745L15.1987 13.698C16.9275 12.0833 18 9.90675 18 7.5C18 5.09325 16.9275 2.9175 15.198 1.302ZM14.8312 7.5C14.8312 5.937 14.145 4.52475 13.0433 3.45675L11.916 4.584C12.6742 5.37075 13.1437 6.38475 13.1437 7.5C13.1437 8.616 12.6765 9.63075 11.9183 10.4183L13.0455 11.5455C14.1465 10.4775 14.8312 9.06375 14.8312 7.5Z" fill="#FFFB99" fill-opacity="0.31"/>
</svg>
