<svg width="36" height="24" viewBox="0 0 36 24" fill="none" xmlns="http://www.w3.org/2000/svg">
<path fill-rule="evenodd" clip-rule="evenodd" d="M5.99953 16.3448C5.55226 16.3448 4.834 16.917 3.8867 19.269C2.83425 21.8821 1.55285 23.7924 0.000536954 23.7931L0 20.069C0.447265 20.0688 1.16545 19.4963 2.11258 17.1448C3.16521 14.5313 4.44687 12.6207 5.99953 12.6207C7.55219 12.6207 8.83385 14.5313 9.88648 17.1448C10.8338 19.4968 11.552 20.069 11.9993 20.069C12.4466 20.069 13.1648 19.4968 14.1121 17.1448C15.1648 14.5313 16.4464 12.6207 17.9991 12.6207C19.5517 12.6207 20.8334 14.5313 21.886 17.1448C22.8333 19.4968 23.5516 20.069 23.9989 20.069C24.4461 20.069 25.1644 19.4968 26.1117 17.1448C27.1643 14.5313 28.446 12.6207 29.9986 12.6207C31.5513 12.6207 32.833 14.5313 33.8856 17.1448C34.8332 19.4976 35.5516 20.0693 35.9989 20.069L36 23.7931C34.4467 23.7944 33.1644 21.8834 32.1115 19.269C31.1642 16.917 30.4459 16.3448 29.9986 16.3448C29.5514 16.3448 28.8331 16.917 27.8858 19.269C26.8332 21.8825 25.5515 23.7931 23.9989 23.7931C22.4462 23.7931 21.1645 21.8825 20.1119 19.269C19.1646 16.917 18.4464 16.3448 17.9991 16.3448C17.5518 16.3448 16.8336 16.917 15.8863 19.269C14.8336 21.8825 13.552 23.7931 11.9993 23.7931C10.4467 23.7931 9.16499 21.8825 8.11236 19.269C7.16506 16.917 6.4468 16.3448 5.99953 16.3448Z" fill="#ECE535" fill-opacity="0.25"/>
<path fill-rule="evenodd" clip-rule="evenodd" d="M5.99953 3.93103C5.55226 3.93103 4.834 4.50322 3.8867 6.85521C2.83425 9.4683 1.55285 11.3786 0.000536954 11.3793L0 7.65517C0.447265 7.65498 1.16545 7.08256 2.11258 4.73099C3.16521 2.11747 4.44687 0.206894 5.99953 0.206894C7.55219 0.206894 8.83385 2.11747 9.88648 4.73099C10.8338 7.08298 11.552 7.65517 11.9993 7.65517C12.4466 7.65517 13.1648 7.08298 14.1121 4.73099C15.1648 2.11747 16.4464 0.206894 17.9991 0.206894C19.5517 0.206894 20.8334 2.11747 21.886 4.73099C22.8333 7.08298 23.5516 7.65517 23.9989 7.65517C24.4461 7.65517 25.1644 7.08298 26.1117 4.73099C27.1643 2.11747 28.446 0.206894 29.9986 0.206894C31.5513 0.206894 32.833 2.11747 33.8856 4.73099C34.8332 7.08384 35.5516 7.65555 35.9989 7.65517L36 11.3793C34.4467 11.3806 33.1644 9.46959 32.1115 6.85521C31.1642 4.50322 30.4459 3.93103 29.9986 3.93103C29.5514 3.93103 28.8331 4.50322 27.8858 6.85521C26.8332 9.46873 25.5515 11.3793 23.9989 11.3793C22.4462 11.3793 21.1645 9.46873 20.1119 6.85521C19.1646 4.50322 18.4464 3.93103 17.9991 3.93103C17.5518 3.93103 16.8336 4.50322 15.8863 6.85521C14.8336 9.46873 13.552 11.3793 11.9993 11.3793C10.4467 11.3793 9.16499 9.46873 8.11236 6.85521C7.16506 4.50322 6.4468 3.93103 5.99953 3.93103Z" fill="#ECE535" fill-opacity="0.25"/>
</svg>
