<svg width="37" height="34" viewBox="0 0 37 34" fill="none" xmlns="http://www.w3.org/2000/svg">
<path d="M27.5 29C27.5 26.516 25.484 24.5 23 24.5H0.5V27.5H23C23.828 27.5 24.5 28.172 24.5 29C24.5 29.828 23.828 30.5 23 30.5C22.3955 30.5 21.8795 30.137 21.6425 29.6195L19.019 31.0535C19.7675 32.501 21.26 33.5 23 33.5C25.484 33.5 27.5 31.484 27.5 29ZM29.021 17.5175C29.144 16.388 30.089 15.5 31.25 15.5C32.4905 15.5 33.5 16.5095 33.5 17.75C33.5 18.9905 32.4905 20 31.25 20H0.5V23H31.25C34.148 23 36.5 20.648 36.5 17.75C36.5 14.852 34.148 12.5 31.25 12.5C28.814 12.5 26.7845 14.174 26.192 16.4255L29.021 17.5175ZM12.5 3.5C17.3195 3.5 17.5505 8.4395 17.2775 9.9215C18.743 9.8675 21.5 10.2515 21.5 12.9995C21.5 14.5055 20.1965 15.5 18.719 15.5H6.251C4.7735 15.5 3.5 14.5055 3.5 12.9995C3.5 10.2725 6.1685 9.8255 7.7225 9.9215C7.6025 8.57 7.5215 3.5 12.5 3.5ZM12.5 0.5C8.4935 0.5 5.2325 3.6395 5.021 7.5935C2.4515 8.054 0.5 10.298 0.5 12.9995C0.5 16.0355 2.963 18.5 6.0005 18.5H18.9995C22.037 18.5 24.5 16.0355 24.5 12.9995C24.5 10.298 22.5485 8.054 19.979 7.5935C19.7675 3.6395 16.5065 0.5 12.5 0.5Z" fill="#ECE535" fill-opacity="0.25"/>
</svg>
